<svg width="26" height="26" viewBox="0 0 26 26" fill="none" xmlns="http://www.w3.org/2000/svg">
<path d="M24.6958 18.495C24.6517 18.4583 19.655 14.8983 18.3058 15.1208C17.655 15.2358 17.2833 15.68 16.5375 16.5683C16.4175 16.7117 16.1283 17.0542 15.905 17.2983C15.4336 17.1448 14.9738 16.9576 14.5292 16.7383C12.2338 15.6208 10.3792 13.7662 9.26167 11.4708C9.04239 11.0262 8.85524 10.5664 8.70167 10.095C8.94667 9.87083 9.29 9.58167 9.43667 9.45833C10.3208 8.71667 10.7642 8.34417 10.8792 7.6925C11.115 6.34333 7.54167 1.34833 7.505 1.30333C7.34227 1.07255 7.13033 0.88077 6.88448 0.741847C6.63862 0.602924 6.36499 0.520321 6.08333 0.5C4.635 0.5 0.5 5.86333 0.5 6.7675C0.5 6.82 0.575833 12.1567 7.15667 18.8508C13.8433 25.4242 19.18 25.5 19.2325 25.5C20.1358 25.5 25.5 21.365 25.5 19.9167C25.4795 19.635 25.3967 19.3613 25.2576 19.1155C25.1186 18.8697 24.9267 18.6577 24.6958 18.495ZM19.14 23.8283C18.4167 23.7667 13.9333 23.1758 8.33333 17.675C2.80583 12.0475 2.23 7.55667 2.1725 6.86083C3.26481 5.14637 4.58399 3.58752 6.09417 2.22667C6.1275 2.26 6.17167 2.31 6.22833 2.375C7.38652 3.95602 8.38423 5.64856 9.20667 7.4275C8.93922 7.69656 8.65653 7.95003 8.36 8.18667C7.90016 8.53704 7.4779 8.93417 7.1 9.37167C7.03606 9.46138 6.99054 9.56289 6.96608 9.67031C6.94162 9.77774 6.9387 9.88894 6.9575 9.9975C7.13386 10.7614 7.40396 11.5007 7.76167 12.1983C9.04324 14.83 11.1698 16.9563 13.8017 18.2375C14.4992 18.5957 15.2385 18.8661 16.0025 19.0425C16.1111 19.0613 16.2223 19.0584 16.3297 19.0339C16.4371 19.0095 16.5386 18.9639 16.6283 18.9C17.0674 18.5206 17.4659 18.0966 17.8175 17.635C18.0792 17.3233 18.4283 16.9075 18.5608 16.79C20.3443 17.6116 22.0406 18.6106 23.6242 19.7717C23.6933 19.83 23.7425 19.875 23.775 19.9042C22.4141 21.4148 20.8549 22.7343 19.14 23.8267V23.8283Z" fill="#333333"/>
<path d="M13.8333 7.16667C15.159 7.16799 16.43 7.6952 17.3674 8.63259C18.3048 9.56999 18.832 10.841 18.8333 12.1667C18.8333 12.3877 18.9211 12.5996 19.0774 12.7559C19.2337 12.9122 19.4457 13 19.6667 13C19.8877 13 20.0996 12.9122 20.2559 12.7559C20.4122 12.5996 20.5 12.3877 20.5 12.1667C20.498 10.3992 19.795 8.70463 18.5452 7.45481C17.2954 6.205 15.6008 5.50199 13.8333 5.5C13.6123 5.5 13.4004 5.5878 13.2441 5.74408C13.0878 5.90036 13 6.11232 13 6.33333C13 6.55435 13.0878 6.76631 13.2441 6.92259C13.4004 7.07887 13.6123 7.16667 13.8333 7.16667Z" fill="#333333"/>
<path d="M13.8333 2.99998C16.2636 3.00285 18.5935 3.96954 20.312 5.688C22.0304 7.40646 22.9971 9.73638 23 12.1666C23 12.3877 23.0878 12.5996 23.2441 12.7559C23.4004 12.9122 23.6123 13 23.8333 13C24.0543 13 24.2663 12.9122 24.4226 12.7559C24.5789 12.5996 24.6667 12.3877 24.6667 12.1666C24.6634 9.29448 23.5209 6.5409 21.49 4.50998C19.4591 2.47905 16.7055 1.33662 13.8333 1.33331C13.6123 1.33331 13.4004 1.42111 13.2441 1.57739C13.0878 1.73367 13 1.94563 13 2.16665C13 2.38766 13.0878 2.59962 13.2441 2.7559C13.4004 2.91218 13.6123 2.99998 13.8333 2.99998Z" fill="#333333"/>
</svg>
