<svg width="14" height="14" viewBox="0 0 14 14" fill="none" xmlns="http://www.w3.org/2000/svg">
<g clip-path="url(#clip0_2001_53)">
<g clip-path="url(#clip1_2001_53)">
<path d="M3.46642 9.23472C3.40005 9.30104 3.3474 9.37978 3.31147 9.46644C3.27553 9.55311 3.25702 9.64601 3.25699 9.73983C3.25696 9.83365 3.2754 9.92655 3.31127 10.0132C3.34715 10.0999 3.39974 10.1787 3.46606 10.2451C3.53238 10.3114 3.61112 10.3641 3.69779 10.4C3.78445 10.436 3.87735 10.4545 3.97117 10.4545C4.06499 10.4545 4.15789 10.4361 4.24459 10.4002C4.33128 10.3644 4.41005 10.3118 4.47642 10.2454L3.46642 9.23472ZM10.0321 3.67901H10.7464C10.7464 3.48957 10.6712 3.30789 10.5372 3.17393C10.4033 3.03998 10.2216 2.96472 10.0321 2.96472V3.67901ZM5.48642 2.96472C5.29698 2.96472 5.1153 3.03998 4.98134 3.17393C4.84739 3.30789 4.77213 3.48957 4.77213 3.67901C4.77213 3.86845 4.84739 4.05013 4.98134 4.18408C5.1153 4.31804 5.29698 4.39329 5.48642 4.39329V2.96472ZM9.31785 8.22472C9.31785 8.41416 9.3931 8.59584 9.52706 8.7298C9.66101 8.86375 9.84269 8.93901 10.0321 8.93901C10.2216 8.93901 10.4033 8.86375 10.5372 8.7298C10.6712 8.59584 10.7464 8.41416 10.7464 8.22472H9.31785ZM4.47642 10.2454L10.5378 4.18401L9.52713 3.17401L3.46642 9.23472L4.47642 10.2454ZM10.0321 2.96472H5.48642V4.39329H10.0321V2.96472ZM9.31785 3.67901V8.22472H10.7464V3.67901H9.31785Z" fill="#151515"/>
</g>
</g>
<defs>
<clipPath id="clip0_2001_53">
<rect width="12.8571" height="12.8571" fill="white" transform="translate(0.571442 0.281128)"/>
</clipPath>
<clipPath id="clip1_2001_53">
<rect width="12.8571" height="12.8571" fill="white" transform="translate(0.571442 0.281128)"/>
</clipPath>
</defs>
</svg>
