<svg width="21" height="21" viewBox="0 0 21 21" fill="none" xmlns="http://www.w3.org/2000/svg">
<path d="M12.6047 19.375C12.2605 19.3696 11.924 19.2715 11.6308 19.0912C11.3375 18.9108 11.0982 18.6548 10.9381 18.35L8.03808 13.05C7.97492 12.9287 7.87601 12.8298 7.75474 12.7666L2.45474 9.90831C2.11798 9.72537 1.84259 9.44726 1.66298 9.10872C1.48336 8.77018 1.40749 8.38622 1.44483 8.0048C1.48217 7.62339 1.63107 7.26143 1.87293 6.96415C2.1148 6.66687 2.4389 6.44745 2.80474 6.33331L16.6131 1.72497C16.9618 1.6014 17.3384 1.57912 17.6992 1.66072C18.06 1.74233 18.3904 1.92447 18.652 2.18607C18.9136 2.44767 19.0957 2.77801 19.1773 3.13885C19.2589 3.49969 19.2367 3.87627 19.1131 4.22497L14.4714 18.0416C14.3548 18.402 14.1344 18.7199 13.8379 18.9555C13.5415 19.1912 13.1821 19.3342 12.8047 19.3666L12.6047 19.375ZM16.9714 2.91664L3.16308 7.52497C3.03143 7.5673 2.91528 7.64766 2.82926 7.75593C2.74324 7.86419 2.69121 7.99551 2.67974 8.13331C2.6673 8.26946 2.6955 8.40625 2.76076 8.52639C2.82602 8.64653 2.92542 8.74463 3.04641 8.80831L8.34641 11.6666C8.68351 11.8454 8.95927 12.1212 9.13808 12.4583L11.9714 17.7583C12.0351 17.8793 12.1332 17.9787 12.2533 18.044C12.3735 18.1092 12.5103 18.1374 12.6464 18.125C12.7842 18.1135 12.9155 18.0615 13.0238 17.9755C13.1321 17.8894 13.2124 17.7733 13.2547 17.6416L17.8881 3.83331C17.942 3.70509 17.9565 3.5637 17.9298 3.4272C17.903 3.29069 17.8362 3.16526 17.7378 3.0669C17.6395 2.96853 17.514 2.90171 17.3775 2.87495C17.241 2.84819 17.0996 2.8627 16.9714 2.91664Z" fill="white"/>
<path d="M8.36284 13.0667C8.28051 13.0685 8.19871 13.0532 8.12266 13.0216C8.0466 12.99 7.97798 12.9429 7.92117 12.8833C7.86221 12.8259 7.81534 12.7572 7.78335 12.6813C7.75135 12.6055 7.73486 12.524 7.73486 12.4417C7.73486 12.3593 7.75135 12.2778 7.78335 12.202C7.81534 12.1261 7.86221 12.0574 7.92117 12L17.7212 2.16665C17.8427 2.0451 18.0076 1.97681 18.1795 1.97681C18.3514 1.97681 18.5163 2.0451 18.6378 2.16665C18.7594 2.28821 18.8277 2.45308 18.8277 2.62499C18.8277 2.7969 18.7594 2.96176 18.6378 3.08332L8.8045 12.8833C8.7468 12.9417 8.67801 12.9881 8.60217 13.0195C8.52632 13.051 8.44495 13.067 8.36284 13.0667Z" fill="white"/>
</svg>
