<svg width="190" height="189" viewBox="0 0 190 189" fill="none" xmlns="http://www.w3.org/2000/svg">
<path d="M147.62 15.1354C163.145 24.488 176.128 37.5307 183.594 53.5594C190.926 69.3011 190.744 86.7967 188.989 103.948C187.199 121.44 184.021 139.075 173.376 153.403C162.273 168.346 146.592 180.317 128.262 185.68C110.03 191.014 90.7059 187.712 72.294 182.977C53.8693 178.24 34.6687 172.45 22.4175 158.463C10.3406 144.674 9.85502 125.534 6.48342 107.839C3.05704 89.8561 -3.697 71.5156 2.56012 54.2439C8.9925 36.4885 24.0652 22.65 40.8719 12.9156C57.1974 3.45977 76.354 0.0533612 95.4358 0.450173C113.938 0.834942 131.961 5.70188 147.62 15.1354Z" fill="#E6EEFD"/>
</svg>
