<svg width="19" height="21" viewBox="0 0 19 21" fill="none" xmlns="http://www.w3.org/2000/svg">
<g clip-path="url(#clip0_2001_314)">
<g clip-path="url(#clip1_2001_314)">
<path d="M9.49985 17.6053C12.4253 17.6053 14.8288 15.287 14.8288 12.3114C14.8288 11.5809 14.7909 10.7975 14.3864 9.5801C13.9818 8.36368 13.9004 8.20641 13.4722 7.4542C13.2893 8.98894 12.3107 9.62747 12.0615 9.81884C12.0615 9.61989 11.4694 7.42199 10.5723 6.10705C9.69121 4.81578 8.49185 3.96883 7.7889 3.39473C7.7889 4.48515 7.4829 6.10705 7.04332 6.93315C6.60374 7.75926 6.52227 7.78957 5.97279 8.40441C5.42332 9.01926 5.17227 9.20873 4.71279 9.95431C4.25427 10.7008 4.1709 11.6946 4.1709 12.425C4.1709 15.3998 6.57437 17.6053 9.49985 17.6053Z" stroke="#333333" stroke-width="1.42105" stroke-linejoin="round"/>
</g>
</g>
<defs>
<clipPath id="clip0_2001_314">
<rect width="18" height="21" fill="white" transform="translate(0.5)"/>
</clipPath>
<clipPath id="clip1_2001_314">
<rect width="18" height="18" fill="white" transform="translate(0.5 1.5)"/>
</clipPath>
</defs>
</svg>
