<svg width="24" height="25" viewBox="0 0 24 25" fill="none" xmlns="http://www.w3.org/2000/svg">
<g clip-path="url(#clip0_2001_24)">
<path d="M9.03715 23.8472C8.80165 23.8472 8.56315 23.8149 8.32315 23.7369C7.4089 23.4399 6.89928 22.6513 6.44928 21.9557C6.21152 21.5886 5.9659 21.2083 5.73565 21.0411C5.4994 20.8689 5.05727 20.7504 4.62978 20.6357C3.83477 20.4227 2.93365 20.1812 2.37527 19.4132C1.8214 18.6527 1.86827 17.7257 1.9099 16.9074C1.9324 16.4612 1.95565 15.9996 1.86265 15.7131C1.77827 15.4528 1.4974 15.1078 1.22627 14.7744C0.726024 14.1594 0.103149 13.3944 0.103149 12.4191C0.103149 11.4437 0.725649 10.6787 1.2259 10.0641C1.4974 9.73068 1.77827 9.38568 1.86265 9.12543C1.95565 8.83855 1.9324 8.37731 1.9099 7.93068C1.86865 7.1128 1.82177 6.18543 2.37527 5.42455C2.93365 4.6573 3.83477 4.4158 4.6294 4.20243C5.05728 4.08768 5.4994 3.96918 5.73602 3.79705C5.96627 3.62943 6.21228 3.24955 6.44965 2.88243C6.89965 2.1868 7.40928 1.39818 8.32315 1.10155C9.20477 0.815429 10.0647 1.14318 10.8233 1.43305C11.2474 1.59505 11.6865 1.76305 12 1.76305C12.3135 1.76305 12.7526 1.59543 13.1775 1.43343C13.9358 1.14393 14.7949 0.816179 15.6773 1.10193C16.5915 1.39855 17.1011 2.18718 17.5508 2.88318C17.7885 3.25068 18.0341 3.63055 18.264 3.7978C18.501 3.96993 18.9431 4.08843 19.3706 4.20318C20.1653 4.41618 21.066 4.65768 21.6252 5.4253C22.179 6.18655 22.1322 7.11318 22.0902 7.93143C22.0677 8.37768 22.0444 8.8393 22.1374 9.1258C22.2222 9.38605 22.5027 9.73105 22.7738 10.0644C23.2744 10.6791 23.8969 11.4441 23.8969 12.4198C23.8969 13.3959 23.274 14.1609 22.7738 14.7752C22.5023 15.1089 22.2218 15.4536 22.1374 15.7138C22.0444 16.0003 22.0677 16.4616 22.0902 16.9082C22.1318 17.7264 22.1786 18.6531 21.6252 19.4143C21.0664 20.1819 20.1653 20.4231 19.3706 20.6364C18.9428 20.7512 18.5007 20.8697 18.264 21.0418C18.0341 21.2094 17.7881 21.5893 17.5508 21.9564C17.1011 22.6521 16.5908 23.4407 15.6773 23.7377C14.796 24.0242 13.9358 23.6961 13.1775 23.4062C12.753 23.2438 12.3139 23.0762 12 23.0762C11.6865 23.0762 11.2474 23.2438 10.8229 23.4062C10.2713 23.6162 9.66565 23.8472 9.03715 23.8472ZM9.04053 2.8663C8.98803 2.8663 8.94153 2.8723 8.90178 2.88505C8.62165 2.9758 8.30402 3.46705 8.0239 3.90055C7.69315 4.41205 7.35152 4.9408 6.8389 5.31355C6.32102 5.69043 5.68015 5.86218 5.11465 6.01405C4.62002 6.1468 4.0594 6.2968 3.89103 6.52855C3.72715 6.75355 3.7564 7.3288 3.7819 7.83655C3.81152 8.4238 3.84527 9.08943 3.6454 9.7048C3.45265 10.2981 3.05965 10.7811 2.6794 11.2479C2.3344 11.6721 1.9774 12.1104 1.9774 12.4194C1.9774 12.7284 2.3344 13.1672 2.67977 13.5913C3.05965 14.0582 3.45302 14.5408 3.6454 15.1344C3.84527 15.7494 3.81152 16.4151 3.7819 17.0023C3.75602 17.5101 3.72715 18.0849 3.89065 18.3096C4.0594 18.5413 4.62003 18.6921 5.11503 18.8244C5.68015 18.9759 6.32065 19.1477 6.8389 19.5246C7.35115 19.8973 7.69315 20.4261 8.02353 20.9376C8.30403 21.3711 8.62165 21.8627 8.90178 21.9534C9.15303 22.0352 9.68478 21.8327 10.1535 21.6538C10.7097 21.4412 11.3404 21.2004 11.9997 21.2004C12.6589 21.2004 13.2896 21.4416 13.8462 21.6538C14.3149 21.8327 14.844 22.0337 15.0979 21.9534C15.378 21.8627 15.6957 21.3711 15.9758 20.9376C16.3065 20.4264 16.6485 19.8977 17.1604 19.5246C17.679 19.1477 18.3195 18.9759 18.885 18.8244C19.3797 18.6917 19.9403 18.5413 20.109 18.3099C20.2729 18.0853 20.2433 17.5101 20.2178 17.0023C20.1882 16.4151 20.1544 15.7491 20.3539 15.1341C20.547 14.5408 20.94 14.0582 21.3195 13.5913C21.6649 13.1672 22.0219 12.7284 22.0219 12.4194C22.0219 12.1104 21.6649 11.6717 21.3199 11.2476C20.9397 10.7807 20.5466 10.2977 20.3539 9.70443C20.1544 9.08906 20.1882 8.42343 20.2178 7.8358C20.2433 7.32843 20.2725 6.75318 20.109 6.52818C19.9407 6.2968 19.38 6.14643 18.885 6.01405C18.3199 5.86255 17.679 5.6908 17.1608 5.31355C16.6485 4.9408 16.3069 4.41205 15.9762 3.90055C15.696 3.46705 15.378 2.9758 15.0979 2.88505C14.8452 2.8033 14.3145 3.0058 13.8462 3.18468C13.29 3.3973 12.6597 3.63805 12 3.63805C11.3404 3.63805 10.71 3.3973 10.1539 3.18505C9.75903 3.03393 9.32028 2.8663 9.04053 2.8663Z" fill="#5589ED"/>
<path d="M12 19.0086C8.36664 19.0086 5.41089 16.0524 5.41089 12.4194C5.41089 8.78607 8.36664 5.83032 12 5.83032C15.633 5.83032 18.5891 8.78607 18.5891 12.4194C18.5891 16.0524 15.633 19.0086 12 19.0086ZM12 7.70532C9.40051 7.70532 7.28589 9.82032 7.28589 12.4194C7.28589 15.0186 9.40051 17.1336 12 17.1336C14.5995 17.1336 16.7141 15.0189 16.7141 12.4194C16.7141 9.81995 14.5995 7.70532 12 7.70532Z" fill="#5589ED"/>
<path d="M11.2031 14.7178C10.9631 14.7178 10.7235 14.6263 10.5401 14.4433L9.41174 13.3153C9.04537 12.949 9.04537 12.3557 9.41174 11.9893C9.77812 11.623 10.3714 11.6233 10.7377 11.9893L11.2031 12.4547L13.2622 10.3956C13.6286 10.0296 14.2219 10.0296 14.5879 10.3956C14.9542 10.7616 14.9542 11.3552 14.5879 11.7216L11.8657 14.4433C11.6831 14.6263 11.4431 14.7178 11.2031 14.7178Z" fill="#5589ED"/>
</g>
<defs>
<clipPath id="clip0_2001_24">
<rect width="24" height="24" fill="white" transform="translate(0 0.419434)"/>
</clipPath>
</defs>
</svg>
