<svg width="24" height="25" viewBox="0 0 24 25" fill="none" xmlns="http://www.w3.org/2000/svg">
<path fill-rule="evenodd" clip-rule="evenodd" d="M13.7135 8.79436C14.0726 8.93721 14.248 9.34414 14.1051 9.70328L11.606 15.9866C11.4632 16.3457 11.0563 16.521 10.6971 16.3782C10.338 16.2354 10.1626 15.8284 10.3055 15.4693L12.8046 9.186C12.9474 8.82686 13.3543 8.65152 13.7135 8.79436Z" fill="#5589ED"/>
<path fill-rule="evenodd" clip-rule="evenodd" d="M14.0739 13.4037C14.0739 13.0172 14.3872 12.7039 14.7737 12.7039H18.2303C18.4667 12.7039 18.6871 12.8232 18.8163 13.0211C18.9456 13.2191 18.9661 13.4689 18.871 13.6853L16.109 19.9685C15.9534 20.3224 15.5405 20.4831 15.1867 20.3276C14.8328 20.172 14.6721 19.7591 14.8276 19.4053L17.1582 14.1035H14.7737C14.3872 14.1035 14.0739 13.7902 14.0739 13.4037Z" fill="#5589ED"/>
<path fill-rule="evenodd" clip-rule="evenodd" d="M8.57764 7.64436C8.34815 8.03574 8.07992 8.50497 7.81948 8.96543C7.6412 9.28062 7.46715 9.59066 7.31249 9.86727H8.56945C8.5699 9.79022 8.57034 9.71281 8.57077 9.63525C8.5747 8.92825 8.57764 8.21061 8.57764 7.64666C8.57764 7.64589 8.57764 7.64513 8.57764 7.64436ZM9.96912 9.86727C9.96956 9.79279 9.96999 9.71798 9.9704 9.64303C9.97434 8.93525 9.97729 8.21454 9.97729 7.64666C9.97729 7.10325 9.97507 6.6477 9.96407 6.51566C9.93615 6.18082 9.76466 5.73311 9.32531 5.52906C8.78435 5.27782 8.29214 5.57415 8.01406 5.9153C7.88597 6.07246 7.65926 6.44583 7.42793 6.83827C7.18045 7.2581 6.88461 7.7753 6.6012 8.27635C6.31746 8.77799 6.04472 9.26605 5.843 9.62851C5.74211 9.8098 5.65892 9.9598 5.60093 10.0645L5.51036 10.2283C5.39076 10.4451 5.3942 10.7097 5.52007 10.9229C5.64595 11.1361 5.87512 11.2669 6.12271 11.2669H8.56016C8.55942 11.368 8.5587 11.4645 8.55801 11.5556L8.55114 12.4145C8.54781 12.801 8.85841 13.118 9.2449 13.1213C9.63139 13.1247 9.9474 12.8141 9.95074 12.4276L9.95762 11.5662C9.95833 11.4719 9.95908 11.3719 9.95985 11.2669H10.0684C10.4549 11.2669 10.7682 10.9536 10.7682 10.5671C10.7682 10.1806 10.4549 9.86727 10.0684 9.86727H9.96912ZM9.09922 6.7993C9.10818 6.78834 9.11403 6.78239 9.11649 6.78005C9.11738 6.7793 9.11782 6.77889 9.11782 6.77887" fill="#5589ED"/>
<path fill-rule="evenodd" clip-rule="evenodd" d="M0.236945 7.29932C0.445272 6.23859 1.37904 5.43823 2.50125 5.43823C3.77569 5.43823 4.80886 6.4714 4.80886 7.74584C4.80886 7.77551 4.80697 7.80515 4.80321 7.83458L4.77214 8.07765C4.76916 8.10096 4.765 8.12411 4.7597 8.147C4.64595 8.63751 4.39169 9.17076 3.9833 9.75426C3.3154 10.7085 2.82609 11.3764 2.47575 11.8443C2.59081 11.8441 2.70822 11.8437 2.82551 11.8432C3.21503 11.8414 3.60036 11.8381 3.88851 11.8353C4.03253 11.8338 4.15215 11.8325 4.23572 11.8316L4.36604 11.83L4.37534 12.5298L4.38408 13.2296L4.25167 13.2311C4.16749 13.2321 4.04715 13.2334 3.9023 13.2348C3.61273 13.2377 3.22474 13.241 2.8319 13.2428C2.43975 13.2446 2.03988 13.2449 1.7276 13.2416C1.57214 13.24 1.43367 13.2375 1.32704 13.2336C1.27443 13.2317 1.2232 13.2292 1.17884 13.2257C1.17843 13.2257 1.17772 13.2257 1.17673 13.2256C1.15919 13.2244 1.05286 13.2174 0.952251 13.1839C0.889694 13.163 0.752904 13.1096 0.632915 12.9765C0.493005 12.8213 0.442721 12.6342 0.446132 12.4727C0.44901 12.3365 0.488987 12.2313 0.510685 12.1805C0.535117 12.1232 0.562915 12.075 0.583513 12.0414C0.649014 11.9347 0.763924 11.7843 0.899409 11.607C0.909373 11.594 0.919449 11.5808 0.929624 11.5675C1.25265 11.1445 1.84178 10.3731 2.8366 8.95169C3.1637 8.48433 3.32218 8.12508 3.38866 7.86204L3.40841 7.70751C3.38832 7.22385 2.98984 6.83789 2.50125 6.83789C2.06079 6.83789 1.69223 7.15221 1.61036 7.56905C1.53587 7.94831 1.16804 8.19538 0.788783 8.12089C0.409525 8.04641 0.162459 7.67857 0.236945 7.29932ZM4.37534 12.5298L4.38408 13.2296C4.77056 13.2247 5.07996 12.9075 5.07511 12.521C5.07026 12.1345 4.75251 11.8252 4.36604 11.83L4.37534 12.5298ZM1.26963 11.8285C1.27003 11.8284 1.27538 11.8288 1.28443 11.8301C1.27375 11.8292 1.26922 11.8285 1.26963 11.8285ZM1.77682 12.7729C1.7767 12.7731 1.77694 12.7727 1.77682 12.7729V12.7729Z" fill="#5589ED"/>
<path fill-rule="evenodd" clip-rule="evenodd" d="M9.52737 1.54962C9.75545 1.23759 9.68739 0.799739 9.37536 0.571658C9.06333 0.343577 8.62548 0.411633 8.3974 0.723665L6.89333 2.78134C6.75522 2.97029 6.7207 3.21578 6.80136 3.43549C6.88202 3.6552 7.06717 3.82005 7.29473 3.87476L9.77291 4.47054C10.1487 4.56089 10.5266 4.32949 10.6169 3.95369C10.7073 3.5779 10.4759 3.20001 10.1001 3.10967L9.88443 3.05782C12.1773 2.50686 14.6704 2.74989 16.9252 3.92444C21.8861 6.50861 23.8128 12.625 21.2286 17.5859C20.1774 19.6038 18.5434 21.1185 16.6398 22.033C16.2914 22.2004 16.1447 22.6185 16.312 22.9669C16.4794 23.3153 16.8975 23.462 17.2459 23.2946C19.4128 22.2536 21.2743 20.5278 22.4699 18.2325L21.8493 17.9092L22.4699 18.2325C25.4112 12.5861 23.2183 5.62439 17.5718 2.6831C14.9496 1.31718 12.0434 1.05893 9.3891 1.73878L9.52737 1.54962ZM1.59094 14.9572C1.96495 14.8598 2.34717 15.0839 2.44465 15.4579C2.504 15.6857 2.57122 15.9113 2.64618 16.1343C2.7693 16.5007 2.5721 16.8975 2.20573 17.0206C1.83936 17.1437 1.44255 16.9466 1.31943 16.5802C1.23419 16.3265 1.15774 16.0699 1.09024 15.8109C0.992759 15.4369 1.21693 15.0547 1.59094 14.9572ZM2.92961 18.4716C3.24815 18.2527 3.68383 18.3335 3.90274 18.652C4.16776 19.0377 4.46066 19.4065 4.78037 19.7551C5.04161 20.0399 5.02248 20.4826 4.73763 20.7438C4.45278 21.0051 4.01009 20.986 3.74885 20.7011C3.38459 20.3039 3.05098 19.8839 2.74922 19.4448C2.53031 19.1262 2.61108 18.6906 2.92961 18.4716ZM5.99014 21.7736C6.1918 21.4439 6.62257 21.34 6.9523 21.5417C7.15165 21.6636 7.35666 21.7796 7.56723 21.8893C7.90676 22.0662 8.25146 22.2218 8.59985 22.3568C8.96026 22.4964 9.13924 22.9017 8.99963 23.2621C8.86001 23.6226 8.45466 23.8015 8.09426 23.6619C7.69781 23.5083 7.30602 23.3314 6.9206 23.1306C6.68159 23.0061 6.44869 22.8744 6.22202 22.7357C5.8923 22.5341 5.78848 22.1033 5.99014 21.7736ZM14.9885 23.4051C15.0622 23.7845 14.8142 24.1518 14.4348 24.2254C14.0136 24.3071 13.5872 24.3655 13.1578 24.3999C12.7726 24.4308 12.4352 24.1436 12.4043 23.7583C12.3734 23.373 12.6606 23.0357 13.0459 23.0047C13.4232 22.9745 13.7979 22.9232 14.1683 22.8513C14.5477 22.7777 14.9149 23.0256 14.9885 23.4051Z" fill="#5589ED"/>
</svg>
