<svg width="98" height="19" viewBox="0 0 98 19" fill="none" xmlns="http://www.w3.org/2000/svg">
<path d="M13.4389 11.5935C13.2446 11.7818 13.1554 12.054 13.1996 12.321L13.8664 16.011C13.9226 16.3238 13.7906 16.6403 13.5289 16.821C13.2724 17.0085 12.9311 17.031 12.6514 16.881L9.3296 15.1485C9.2141 15.087 9.08585 15.054 8.9546 15.0503H8.75135C8.68085 15.0608 8.61185 15.0833 8.54885 15.1178L5.22635 16.8585C5.0621 16.941 4.8761 16.9703 4.69385 16.941C4.24985 16.857 3.9536 16.434 4.02635 15.9878L4.69385 12.2978C4.7381 12.0285 4.64885 11.7548 4.4546 11.5635L1.74635 8.93852C1.51985 8.71877 1.4411 8.38877 1.5446 8.09102C1.6451 7.79402 1.9016 7.57727 2.21135 7.52852L5.93885 6.98777C6.22235 6.95852 6.47135 6.78602 6.59885 6.53102L8.24135 3.16352C8.28035 3.08852 8.3306 3.01952 8.39135 2.96102L8.45885 2.90852C8.4941 2.86952 8.5346 2.83727 8.5796 2.81102L8.66135 2.78102L8.78885 2.72852H9.1046C9.3866 2.75777 9.63485 2.92652 9.7646 3.17852L11.4289 6.53102C11.5489 6.77627 11.7821 6.94652 12.0514 6.98777L15.7789 7.52852C16.0939 7.57352 16.3571 7.79102 16.4614 8.09102C16.5596 8.39177 16.4749 8.72177 16.2439 8.93852L13.4389 11.5935Z" fill="#FDCE3F"/>
<path d="M33.4389 11.5935C33.2446 11.7818 33.1554 12.054 33.1996 12.321L33.8664 16.011C33.9226 16.3238 33.7906 16.6403 33.5289 16.821C33.2724 17.0085 32.9311 17.031 32.6514 16.881L29.3296 15.1485C29.2141 15.087 29.0859 15.054 28.9546 15.0503H28.7514C28.6809 15.0608 28.6119 15.0833 28.5489 15.1178L25.2264 16.8585C25.0621 16.941 24.8761 16.9703 24.6939 16.941C24.2499 16.857 23.9536 16.434 24.0264 15.9878L24.6939 12.2978C24.7381 12.0285 24.6489 11.7548 24.4546 11.5635L21.7464 8.93852C21.5199 8.71877 21.4411 8.38877 21.5446 8.09102C21.6451 7.79402 21.9016 7.57727 22.2114 7.52852L25.9389 6.98777C26.2224 6.95852 26.4714 6.78602 26.5989 6.53102L28.2414 3.16352C28.2804 3.08852 28.3306 3.01952 28.3914 2.96102L28.4589 2.90852C28.4941 2.86952 28.5346 2.83727 28.5796 2.81102L28.6614 2.78102L28.7889 2.72852H29.1046C29.3866 2.75777 29.6349 2.92652 29.7646 3.17852L31.4289 6.53102C31.5489 6.77627 31.7821 6.94652 32.0514 6.98777L35.7789 7.52852C36.0939 7.57352 36.3571 7.79102 36.4614 8.09102C36.5596 8.39177 36.4749 8.72177 36.2439 8.93852L33.4389 11.5935Z" fill="#FDCE3F"/>
<path d="M53.4389 11.5935C53.2446 11.7818 53.1554 12.054 53.1996 12.321L53.8664 16.011C53.9226 16.3238 53.7906 16.6403 53.5289 16.821C53.2724 17.0085 52.9311 17.031 52.6514 16.881L49.3296 15.1485C49.2141 15.087 49.0859 15.054 48.9546 15.0503H48.7514C48.6809 15.0608 48.6119 15.0833 48.5489 15.1178L45.2264 16.8585C45.0621 16.941 44.8761 16.9703 44.6939 16.941C44.2499 16.857 43.9536 16.434 44.0264 15.9878L44.6939 12.2978C44.7381 12.0285 44.6489 11.7548 44.4546 11.5635L41.7464 8.93852C41.5199 8.71877 41.4411 8.38877 41.5446 8.09102C41.6451 7.79402 41.9016 7.57727 42.2114 7.52852L45.9389 6.98777C46.2224 6.95852 46.4714 6.78602 46.5989 6.53102L48.2414 3.16352C48.2804 3.08852 48.3306 3.01952 48.3914 2.96102L48.4589 2.90852C48.4941 2.86952 48.5346 2.83727 48.5796 2.81102L48.6614 2.78102L48.7889 2.72852H49.1046C49.3866 2.75777 49.6349 2.92652 49.7646 3.17852L51.4289 6.53102C51.5489 6.77627 51.7821 6.94652 52.0514 6.98777L55.7789 7.52852C56.0939 7.57352 56.3571 7.79102 56.4614 8.09102C56.5596 8.39177 56.4749 8.72177 56.2439 8.93852L53.4389 11.5935Z" fill="#FDCE3F"/>
<path d="M73.4389 11.5935C73.2446 11.7818 73.1554 12.054 73.1996 12.321L73.8664 16.011C73.9226 16.3238 73.7906 16.6403 73.5289 16.821C73.2724 17.0085 72.9311 17.031 72.6514 16.881L69.3296 15.1485C69.2141 15.087 69.0859 15.054 68.9546 15.0503H68.7514C68.6809 15.0608 68.6119 15.0833 68.5489 15.1178L65.2264 16.8585C65.0621 16.941 64.8761 16.9703 64.6939 16.941C64.2499 16.857 63.9536 16.434 64.0264 15.9878L64.6939 12.2978C64.7381 12.0285 64.6489 11.7548 64.4546 11.5635L61.7464 8.93852C61.5199 8.71877 61.4411 8.38877 61.5446 8.09102C61.6451 7.79402 61.9016 7.57727 62.2114 7.52852L65.9389 6.98777C66.2224 6.95852 66.4714 6.78602 66.5989 6.53102L68.2414 3.16352C68.2804 3.08852 68.3306 3.01952 68.3914 2.96102L68.4589 2.90852C68.4941 2.86952 68.5346 2.83727 68.5796 2.81102L68.6614 2.78102L68.7889 2.72852H69.1046C69.3866 2.75777 69.6349 2.92652 69.7646 3.17852L71.4289 6.53102C71.5489 6.77627 71.7821 6.94652 72.0514 6.98777L75.7789 7.52852C76.0939 7.57352 76.3571 7.79102 76.4614 8.09102C76.5596 8.39177 76.4749 8.72177 76.2439 8.93852L73.4389 11.5935Z" fill="#FDCE3F"/>
<path d="M93.4389 11.5935C93.2446 11.7818 93.1554 12.054 93.1996 12.321L93.8664 16.011C93.9226 16.3238 93.7906 16.6403 93.5289 16.821C93.2724 17.0085 92.9311 17.031 92.6514 16.881L89.3296 15.1485C89.2141 15.087 89.0859 15.054 88.9546 15.0503H88.7514C88.6809 15.0608 88.6119 15.0833 88.5489 15.1178L85.2264 16.8585C85.0621 16.941 84.8761 16.9703 84.6939 16.941C84.2499 16.857 83.9536 16.434 84.0264 15.9878L84.6939 12.2978C84.7381 12.0285 84.6489 11.7548 84.4546 11.5635L81.7464 8.93852C81.5199 8.71877 81.4411 8.38877 81.5446 8.09102C81.6451 7.79402 81.9016 7.57727 82.2114 7.52852L85.9389 6.98777C86.2224 6.95852 86.4714 6.78602 86.5989 6.53102L88.2414 3.16352C88.2804 3.08852 88.3306 3.01952 88.3914 2.96102L88.4589 2.90852C88.4941 2.86952 88.5346 2.83727 88.5796 2.81102L88.6614 2.78102L88.7889 2.72852H89.1046C89.3866 2.75777 89.6349 2.92652 89.7646 3.17852L91.4289 6.53102C91.5489 6.77627 91.7821 6.94652 92.0514 6.98777L95.7789 7.52852C96.0939 7.57352 96.3571 7.79102 96.4614 8.09102C96.5596 8.39177 96.4749 8.72177 96.2439 8.93852L93.4389 11.5935Z" fill="#FDCE3F"/>
</svg>
